<?xml version="1.0" encoding="UTF-8" standalone="no"?>
<!DOCTYPE svg PUBLIC "-//W3C//DTD SVG 1.1//EN"
 "http://www.w3.org/Graphics/SVG/1.1/DTD/svg11.dtd">
<!-- Generated by graphviz version 2.38.0 (20140413.2041)
 -->
<!-- Title: G Pages: 1 -->
<svg width="579pt" height="654pt"
 viewBox="0.00 0.00 579.00 654.00" xmlns="http://www.w3.org/2000/svg" xmlns:xlink="http://www.w3.org/1999/xlink">
<g id="graph0" class="graph" transform="scale(1 1) rotate(0) translate(4 650)">
<title>G</title>
<polygon fill="white" stroke="none" points="-4,4 -4,-650 575,-650 575,4 -4,4"/>
<g id="clust1" class="cluster"><title>cluster_Global</title>
<path fill="none" stroke="gray" d="M20,-44C20,-44 551,-44 551,-44 557,-44 563,-50 563,-56 563,-56 563,-626 563,-626 563,-632 557,-638 551,-638 551,-638 20,-638 20,-638 14,-638 8,-632 8,-626 8,-626 8,-56 8,-56 8,-50 14,-44 20,-44"/>
<text text-anchor="middle" x="285.5" y="-625.2" font-family="Times New Roman,serif" font-size="11.00" fill="gray">Global</text>
</g>
<g id="clust2" class="cluster"><title>cluster_\wow_ah</title>
<path fill="none" stroke="gray" d="M223,-52C223,-52 543,-52 543,-52 549,-52 555,-58 555,-64 555,-64 555,-598 555,-598 555,-604 549,-610 543,-610 543,-610 223,-610 223,-610 217,-610 211,-604 211,-598 211,-598 211,-64 211,-64 211,-58 217,-52 223,-52"/>
<text text-anchor="middle" x="383" y="-597.2" font-family="Times New Roman,serif" font-size="11.00" fill="gray">wow_ah</text>
</g>
<!-- \\wow_ah\\wow_ah -->
<g id="node1" class="node"><title>\\wow_ah\\wow_ah</title>
<polygon fill="none" stroke="black" points="513,-582 456,-582 456,-546 513,-546 513,-582"/>
<text text-anchor="middle" x="484.5" y="-561.2" font-family="Courier,monospace" font-size="11.00">wow_ah</text>
</g>
<!-- \\wow_ah\\object_from_array -->
<g id="node2" class="node"><title>\\wow_ah\\object_from_array</title>
<polygon fill="none" stroke="black" points="350,-366 219,-366 219,-330 350,-330 350,-366"/>
<text text-anchor="middle" x="284.5" y="-345.2" font-family="Courier,monospace" font-size="11.00">object_from_array</text>
</g>
<!-- \\object_from_array -->
<g id="node12" class="node"><title>\\object_from_array</title>
<polygon fill="none" stroke="black" points="147,-366 16,-366 16,-330 147,-330 147,-366"/>
<text text-anchor="start" x="47.5" y="-351.2" font-family="Courier,monospace" font-size="11.00">«abstract»</text>
<text text-anchor="start" x="24" y="-339.2" font-family="Courier,monospace" font-size="11.00">object_from_array</text>
</g>
<!-- \\wow_ah\\object_from_array&#45;&gt;\\object_from_array -->
<g id="edge1" class="edge"><title>\\wow_ah\\object_from_array&#45;&gt;\\object_from_array</title>
<path fill="none" stroke="black" d="M218.796,-348C199.161,-348 177.428,-348 157.193,-348"/>
<polygon fill="none" stroke="black" points="157.083,-344.5 147.083,-348 157.083,-351.5 157.083,-344.5"/>
</g>
<!-- \\wow_ah\\http_transaction -->
<g id="node3" class="node"><title>\\wow_ah\\http_transaction</title>
<polygon fill="none" stroke="black" points="547,-528 422,-528 422,-492 547,-492 547,-528"/>
<text text-anchor="middle" x="484.5" y="-507.2" font-family="Courier,monospace" font-size="11.00">http_transaction</text>
</g>
<!-- \\wow_ah\\http_transaction&#45;&gt;\\wow_ah\\object_from_array -->
<g id="edge2" class="edge"><title>\\wow_ah\\http_transaction&#45;&gt;\\wow_ah\\object_from_array</title>
<path fill="none" stroke="black" d="M437.167,-491.887C431.896,-489.182 426.726,-486.211 422,-483 375.884,-451.668 331.755,-403.643 306.706,-374.118"/>
<polygon fill="none" stroke="black" points="309.267,-371.725 300.161,-366.31 303.903,-376.222 309.267,-371.725"/>
</g>
<!-- \\wow_ah\\search_result -->
<g id="node4" class="node"><title>\\wow_ah\\search_result</title>
<polygon fill="none" stroke="black" points="536.5,-474 432.5,-474 432.5,-438 536.5,-438 536.5,-474"/>
<text text-anchor="middle" x="484.5" y="-453.2" font-family="Courier,monospace" font-size="11.00">search_result</text>
</g>
<!-- \\wow_ah\\search_result&#45;&gt;\\wow_ah\\object_from_array -->
<g id="edge3" class="edge"><title>\\wow_ah\\search_result&#45;&gt;\\wow_ah\\object_from_array</title>
<path fill="none" stroke="black" d="M440.506,-437.926C434.24,-435.061 427.912,-432.038 422,-429 387.427,-411.237 349.512,-388.457 322.435,-371.582"/>
<polygon fill="none" stroke="black" points="324.02,-368.445 313.688,-366.101 320.303,-374.377 324.02,-368.445"/>
</g>
<!-- \\wow_ah\\browser_info -->
<g id="node5" class="node"><title>\\wow_ah\\browser_info</title>
<polygon fill="none" stroke="black" points="533.5,-420 435.5,-420 435.5,-384 533.5,-384 533.5,-420"/>
<text text-anchor="middle" x="484.5" y="-399.2" font-family="Courier,monospace" font-size="11.00">browser_info</text>
</g>
<!-- \\wow_ah\\browser_info&#45;&gt;\\wow_ah\\object_from_array -->
<g id="edge4" class="edge"><title>\\wow_ah\\browser_info&#45;&gt;\\wow_ah\\object_from_array</title>
<path fill="none" stroke="black" d="M435.317,-388.859C412.681,-382.686 385.181,-375.186 359.952,-368.305"/>
<polygon fill="none" stroke="black" points="360.61,-364.857 350.042,-365.602 358.768,-371.61 360.61,-364.857"/>
</g>
<!-- \\wow_ah\\inventory_item -->
<g id="node6" class="node"><title>\\wow_ah\\inventory_item</title>
<polygon fill="none" stroke="black" points="540,-366 429,-366 429,-330 540,-330 540,-366"/>
<text text-anchor="middle" x="484.5" y="-345.2" font-family="Courier,monospace" font-size="11.00">inventory_item</text>
</g>
<!-- \\wow_ah\\inventory_item&#45;&gt;\\wow_ah\\object_from_array -->
<g id="edge5" class="edge"><title>\\wow_ah\\inventory_item&#45;&gt;\\wow_ah\\object_from_array</title>
<path fill="none" stroke="black" d="M428.871,-348C407.728,-348 383.181,-348 360.437,-348"/>
<polygon fill="none" stroke="black" points="360.132,-344.5 350.132,-348 360.132,-351.5 360.132,-344.5"/>
</g>
<!-- \\wow_ah\\auctions -->
<g id="node7" class="node"><title>\\wow_ah\\auctions</title>
<polygon fill="none" stroke="black" points="520,-312 449,-312 449,-276 520,-276 520,-312"/>
<text text-anchor="middle" x="484.5" y="-291.2" font-family="Courier,monospace" font-size="11.00">auctions</text>
</g>
<!-- \\wow_ah\\active_auction -->
<g id="node8" class="node"><title>\\wow_ah\\active_auction</title>
<polygon fill="none" stroke="black" points="540,-258 429,-258 429,-222 540,-222 540,-258"/>
<text text-anchor="middle" x="484.5" y="-237.2" font-family="Courier,monospace" font-size="11.00">active_auction</text>
</g>
<!-- \\wow_ah\\active_auction&#45;&gt;\\wow_ah\\object_from_array -->
<g id="edge6" class="edge"><title>\\wow_ah\\active_auction&#45;&gt;\\wow_ah\\object_from_array</title>
<path fill="none" stroke="black" d="M440.506,-258.074C434.24,-260.939 427.912,-263.962 422,-267 387.427,-284.763 349.512,-307.543 322.435,-324.418"/>
<polygon fill="none" stroke="black" points="320.303,-321.623 313.688,-329.899 324.02,-327.555 320.303,-321.623"/>
</g>
<!-- \\wow_ah\\sold_auction -->
<g id="node9" class="node"><title>\\wow_ah\\sold_auction</title>
<polygon fill="none" stroke="black" points="533.5,-204 435.5,-204 435.5,-168 533.5,-168 533.5,-204"/>
<text text-anchor="middle" x="484.5" y="-183.2" font-family="Courier,monospace" font-size="11.00">sold_auction</text>
</g>
<!-- \\wow_ah\\sold_auction&#45;&gt;\\wow_ah\\object_from_array -->
<g id="edge7" class="edge"><title>\\wow_ah\\sold_auction&#45;&gt;\\wow_ah\\object_from_array</title>
<path fill="none" stroke="black" d="M437.167,-204.113C431.896,-206.818 426.726,-209.789 422,-213 375.884,-244.332 331.755,-292.357 306.706,-321.882"/>
<polygon fill="none" stroke="black" points="303.903,-319.778 300.161,-329.69 309.267,-324.275 303.903,-319.778"/>
</g>
<!-- \\wow_ah\\ended_auction -->
<g id="node10" class="node"><title>\\wow_ah\\ended_auction</title>
<polygon fill="none" stroke="black" points="536.5,-150 432.5,-150 432.5,-114 536.5,-114 536.5,-150"/>
<text text-anchor="middle" x="484.5" y="-129.2" font-family="Courier,monospace" font-size="11.00">ended_auction</text>
</g>
<!-- \\wow_ah\\ended_auction&#45;&gt;\\wow_ah\\object_from_array -->
<g id="edge8" class="edge"><title>\\wow_ah\\ended_auction&#45;&gt;\\wow_ah\\object_from_array</title>
<path fill="none" stroke="black" d="M435.352,-150.07C430.629,-152.73 426.082,-155.703 422,-159 364.869,-205.152 320.15,-280.832 298.95,-320.995"/>
<polygon fill="none" stroke="black" points="295.809,-319.448 294.31,-329.936 302.023,-322.672 295.809,-319.448"/>
</g>
<!-- \\wow_ah\\Exception -->
<g id="node11" class="node"><title>\\wow_ah\\Exception</title>
<polygon fill="none" stroke="black" points="523,-96 446,-96 446,-60 523,-60 523,-96"/>
<text text-anchor="middle" x="484.5" y="-75.2" font-family="Courier,monospace" font-size="11.00">Exception</text>
</g>
<!-- \\Exception -->
<g id="node13" class="node"><title>\\Exception</title>
<ellipse fill="none" stroke="black" cx="284.5" cy="-18" rx="50.0912" ry="18"/>
<text text-anchor="middle" x="284.5" y="-14.3" font-family="Times New Roman,serif" font-size="14.00" fill="gray">\Exception</text>
</g>
<!-- \\wow_ah\\Exception&#45;&gt;\\Exception -->
<g id="edge9" class="edge"><title>\\wow_ah\\Exception&#45;&gt;\\Exception</title>
<path fill="none" stroke="black" d="M445.792,-66.5732C413.827,-56.8871 367.809,-42.9422 333.272,-32.4764"/>
<polygon fill="none" stroke="black" points="333.99,-29.0368 323.405,-29.4863 331.96,-35.736 333.99,-29.0368"/>
</g>
</g>
</svg>
